<mxfile host="app.diagrams.net" modified="2023-11-09T19:55:36.517Z" agent="Mozilla/5.0 (Macintosh; Intel Mac OS X 10_15_7) AppleWebKit/537.36 (KHTML, like Gecko) Chrome/116.0.0.0 Safari/537.36" etag="I-XkWFIX6KzVoSZi1uOo" version="22.1.0" type="github">
  <diagram name="Page-1" id="f31c993MnNktxt3acmLQ">
    <mxGraphModel dx="954" dy="642" grid="1" gridSize="10" guides="1" tooltips="1" connect="1" arrows="1" fold="1" page="1" pageScale="1" pageWidth="850" pageHeight="1100" math="0" shadow="0">
      <root>
        <mxCell id="0" />
        <mxCell id="1" parent="0" />
        <mxCell id="MZs_MeEJ6j7sGni2RoES-32" value="&lt;h1&gt;&lt;span style=&quot;background-color: initial;&quot;&gt;User Requirement for Real Time Monitoring System (RTMS)&lt;/span&gt;&lt;/h1&gt;&lt;h1&gt;&lt;/h1&gt;&lt;br&gt;&lt;br&gt;&amp;nbsp;" style="text;html=1;strokeColor=none;fillColor=none;spacing=5;spacingTop=-20;whiteSpace=wrap;overflow=hidden;rounded=0;" parent="1" vertex="1">
          <mxGeometry x="70" y="20" width="690" height="50" as="geometry" />
        </mxCell>
        <mxCell id="MZs_MeEJ6j7sGni2RoES-33" value="&lt;h1&gt;&lt;span style=&quot;background-color: initial;&quot;&gt;Functional Requirement&amp;nbsp;&lt;/span&gt;&lt;/h1&gt;&lt;h1 style=&quot;font-size: 11px;&quot;&gt;&lt;font style=&quot;font-size: 11px;&quot;&gt;&lt;span style=&quot;background-color: initial; font-weight: normal;&quot;&gt;The system allows user is able to read real time data from the Iot Websocket simulator&lt;/span&gt;&lt;/font&gt;&lt;/h1&gt;&lt;h1 style=&quot;font-size: 11px;&quot;&gt;&lt;span style=&quot;font-weight: normal;&quot;&gt;The system allows user is able to save instantaneous data&lt;/span&gt;&lt;/h1&gt;&lt;div style=&quot;font-size: 11px;&quot;&gt;&lt;span style=&quot;background-color: initial;&quot;&gt;&lt;font style=&quot;font-size: 11px;&quot;&gt;The system shall require user to login to save data&lt;/font&gt;&lt;/span&gt;&lt;/div&gt;&lt;div style=&quot;font-size: 11px;&quot;&gt;&lt;span style=&quot;background-color: initial;&quot;&gt;&lt;font style=&quot;font-size: 11px;&quot;&gt;The system will indicate that the data entered is non numeric&lt;/font&gt;&lt;/span&gt;&lt;/div&gt;&lt;div&gt;&lt;span style=&quot;background-color: initial; font-size: 12px; font-weight: normal;&quot;&gt;&lt;br&gt;&lt;/span&gt;&lt;/div&gt;&lt;div&gt;&lt;span style=&quot;background-color: initial; font-size: 12px; font-weight: normal;&quot;&gt;&lt;br&gt;&lt;/span&gt;&lt;/div&gt;&lt;br&gt;&amp;nbsp;" style="text;html=1;strokeColor=none;fillColor=none;spacing=5;spacingTop=-20;whiteSpace=wrap;overflow=hidden;rounded=0;" parent="1" vertex="1">
          <mxGeometry x="70" y="460" width="630" height="140" as="geometry" />
        </mxCell>
        <mxCell id="MZs_MeEJ6j7sGni2RoES-38" value="&lt;h1&gt;Constraint&lt;/h1&gt;&lt;div&gt;The maximum saving record to database is 100 records/session.&lt;/div&gt;&lt;div&gt;&lt;br&gt;&lt;/div&gt;&lt;div&gt;After that, the user is required to re-logged in to the system to save record to database.&lt;/div&gt;&lt;div&gt;&lt;br&gt;&lt;/div&gt;&lt;div&gt;&lt;br&gt;&lt;/div&gt;&lt;br&gt;&amp;nbsp;" style="text;html=1;strokeColor=none;fillColor=none;spacing=5;spacingTop=-20;whiteSpace=wrap;overflow=hidden;rounded=0;" parent="1" vertex="1">
          <mxGeometry x="70" y="770" width="640" height="110" as="geometry" />
        </mxCell>
        <mxCell id="r6Re-jrNYUQEbt7xdXI9-9" value="&lt;h1&gt;&lt;/h1&gt;&lt;span style=&quot;font-size: 24px;&quot;&gt;&lt;b&gt;Interface Requirement&lt;br&gt;&lt;/b&gt;&lt;/span&gt;&lt;br&gt;&lt;div&gt;There will be a display for the the user to view the real time monitoring data.&lt;br&gt;&lt;/div&gt;&lt;div&gt;&lt;br&gt;&lt;/div&gt;&lt;div&gt;There will be a message indicating &#39;RECORD NOT NUMERIC&#39; for non numerical record.&lt;/div&gt;&lt;div&gt;&lt;br&gt;&lt;/div&gt;&lt;div&gt;&lt;br&gt;&lt;/div&gt;&lt;div&gt;&lt;br&gt;&lt;/div&gt;&lt;br&gt;&amp;nbsp;" style="text;html=1;strokeColor=none;fillColor=none;spacing=5;spacingTop=-20;whiteSpace=wrap;overflow=hidden;rounded=0;" parent="1" vertex="1">
          <mxGeometry x="70" y="70" width="740" height="110" as="geometry" />
        </mxCell>
        <mxCell id="r6Re-jrNYUQEbt7xdXI9-19" value="Student" style="shape=umlActor;verticalLabelPosition=bottom;verticalAlign=top;html=1;outlineConnect=0;" parent="1" vertex="1">
          <mxGeometry x="80" y="1350" width="30" height="60" as="geometry" />
        </mxCell>
        <mxCell id="r6Re-jrNYUQEbt7xdXI9-20" value="Register Course" style="ellipse;whiteSpace=wrap;html=1;" parent="1" vertex="1">
          <mxGeometry x="240" y="1340" width="120" height="80" as="geometry" />
        </mxCell>
        <mxCell id="r6Re-jrNYUQEbt7xdXI9-21" value="" style="endArrow=classic;html=1;rounded=0;" parent="1" source="r6Re-jrNYUQEbt7xdXI9-19" target="r6Re-jrNYUQEbt7xdXI9-20" edge="1">
          <mxGeometry width="50" height="50" relative="1" as="geometry">
            <mxPoint x="120" y="1380" as="sourcePoint" />
            <mxPoint x="160" y="1330" as="targetPoint" />
          </mxGeometry>
        </mxCell>
        <mxCell id="r6Re-jrNYUQEbt7xdXI9-22" value="View Dashboard Data" style="ellipse;whiteSpace=wrap;html=1;" parent="1" vertex="1">
          <mxGeometry x="35" y="1460" width="120" height="80" as="geometry" />
        </mxCell>
        <mxCell id="r6Re-jrNYUQEbt7xdXI9-24" value="Billing System" style="shape=umlActor;verticalLabelPosition=bottom;verticalAlign=top;html=1;outlineConnect=0;" parent="1" vertex="1">
          <mxGeometry x="510" y="1350" width="30" height="60" as="geometry" />
        </mxCell>
        <mxCell id="r6Re-jrNYUQEbt7xdXI9-25" value="" style="endArrow=classic;html=1;rounded=0;" parent="1" target="r6Re-jrNYUQEbt7xdXI9-24" edge="1">
          <mxGeometry width="50" height="50" relative="1" as="geometry">
            <mxPoint x="360" y="1379.5" as="sourcePoint" />
            <mxPoint x="490" y="1379.5" as="targetPoint" />
            <Array as="points">
              <mxPoint x="420" y="1380" />
            </Array>
          </mxGeometry>
        </mxCell>
        <mxCell id="r6Re-jrNYUQEbt7xdXI9-26" value="Login" style="ellipse;whiteSpace=wrap;html=1;" parent="1" vertex="1">
          <mxGeometry x="240" y="1460" width="120" height="80" as="geometry" />
        </mxCell>
        <mxCell id="r6Re-jrNYUQEbt7xdXI9-27" value="Professor" style="shape=umlActor;verticalLabelPosition=bottom;verticalAlign=top;html=1;outlineConnect=0;" parent="1" vertex="1">
          <mxGeometry x="510" y="1600" width="30" height="60" as="geometry" />
        </mxCell>
        <mxCell id="r6Re-jrNYUQEbt7xdXI9-29" value="" style="endArrow=classic;html=1;rounded=0;exitX=1;exitY=0.5;exitDx=0;exitDy=0;" parent="1" source="r6Re-jrNYUQEbt7xdXI9-31" target="r6Re-jrNYUQEbt7xdXI9-27" edge="1">
          <mxGeometry width="50" height="50" relative="1" as="geometry">
            <mxPoint x="360" y="1540" as="sourcePoint" />
            <mxPoint x="410" y="1490" as="targetPoint" />
          </mxGeometry>
        </mxCell>
        <mxCell id="r6Re-jrNYUQEbt7xdXI9-30" value="" style="endArrow=classic;html=1;rounded=0;entryX=0.5;entryY=0;entryDx=0;entryDy=0;exitX=0.5;exitY=1;exitDx=0;exitDy=0;" parent="1" source="r6Re-jrNYUQEbt7xdXI9-20" target="r6Re-jrNYUQEbt7xdXI9-26" edge="1">
          <mxGeometry width="50" height="50" relative="1" as="geometry">
            <mxPoint x="320" y="1370" as="sourcePoint" />
            <mxPoint x="370" y="1320" as="targetPoint" />
          </mxGeometry>
        </mxCell>
        <mxCell id="r6Re-jrNYUQEbt7xdXI9-31" value="View Courses to Teach" style="ellipse;whiteSpace=wrap;html=1;" parent="1" vertex="1">
          <mxGeometry x="240" y="1590" width="120" height="80" as="geometry" />
        </mxCell>
        <mxCell id="r6Re-jrNYUQEbt7xdXI9-32" value="" style="endArrow=classic;html=1;rounded=0;exitX=0.5;exitY=0;exitDx=0;exitDy=0;" parent="1" source="r6Re-jrNYUQEbt7xdXI9-31" edge="1">
          <mxGeometry width="50" height="50" relative="1" as="geometry">
            <mxPoint x="310" y="1430" as="sourcePoint" />
            <mxPoint x="300" y="1540" as="targetPoint" />
          </mxGeometry>
        </mxCell>
        <mxCell id="r6Re-jrNYUQEbt7xdXI9-33" value="&amp;lt;&amp;lt;include&amp;gt;&amp;gt;" style="text;html=1;strokeColor=none;fillColor=none;align=center;verticalAlign=middle;whiteSpace=wrap;rounded=0;" parent="1" vertex="1">
          <mxGeometry x="310" y="1550" width="60" height="30" as="geometry" />
        </mxCell>
        <mxCell id="r6Re-jrNYUQEbt7xdXI9-34" value="&amp;lt;&amp;lt;include&amp;gt;&amp;gt;" style="text;html=1;strokeColor=none;fillColor=none;align=center;verticalAlign=middle;whiteSpace=wrap;rounded=0;" parent="1" vertex="1">
          <mxGeometry x="310" y="1430" width="60" height="30" as="geometry" />
        </mxCell>
        <mxCell id="r6Re-jrNYUQEbt7xdXI9-35" value="" style="endArrow=classic;html=1;rounded=0;" parent="1" source="r6Re-jrNYUQEbt7xdXI9-19" edge="1">
          <mxGeometry width="50" height="50" relative="1" as="geometry">
            <mxPoint x="94.5" y="1410" as="sourcePoint" />
            <mxPoint x="95" y="1460" as="targetPoint" />
          </mxGeometry>
        </mxCell>
        <mxCell id="r6Re-jrNYUQEbt7xdXI9-36" value="" style="endArrow=classic;html=1;rounded=0;exitX=1;exitY=0.5;exitDx=0;exitDy=0;" parent="1" source="r6Re-jrNYUQEbt7xdXI9-22" edge="1">
          <mxGeometry width="50" height="50" relative="1" as="geometry">
            <mxPoint x="239" y="1550" as="sourcePoint" />
            <mxPoint x="239" y="1500" as="targetPoint" />
          </mxGeometry>
        </mxCell>
        <mxCell id="r6Re-jrNYUQEbt7xdXI9-37" value="&amp;lt;&amp;lt;include&amp;gt;&amp;gt;" style="text;html=1;strokeColor=none;fillColor=none;align=center;verticalAlign=middle;whiteSpace=wrap;rounded=0;" parent="1" vertex="1">
          <mxGeometry x="170" y="1510" width="60" height="30" as="geometry" />
        </mxCell>
        <mxCell id="r6Re-jrNYUQEbt7xdXI9-39" value="&lt;h1&gt;Register Course&lt;br&gt;&lt;/h1&gt;&lt;div&gt;Pre Condition(s):&lt;/div&gt;&lt;div&gt;The system will check whether or not registration exceeds 10 registered student&lt;br&gt;&lt;/div&gt;&lt;div&gt;&lt;br&gt;&lt;/div&gt;&lt;div&gt;Student are able to view&lt;/div&gt;course catalogue containing a list of&lt;br&gt;course, such as professor, department, and pre-requisites.&lt;br&gt;&lt;br&gt;Student are able to register course.&lt;br&gt;&lt;br&gt;Student are able to register&amp;nbsp;alternative course in case of fully filled or cancelled&lt;br&gt;&amp;nbsp;" style="text;html=1;strokeColor=none;fillColor=none;spacing=5;spacingTop=-20;whiteSpace=wrap;overflow=hidden;rounded=0;" parent="1" vertex="1">
          <mxGeometry x="35" y="1720" width="190" height="340" as="geometry" />
        </mxCell>
        <mxCell id="r6Re-jrNYUQEbt7xdXI9-40" value="&lt;h1&gt;&lt;/h1&gt;&lt;span style=&quot;font-size: 24px;&quot;&gt;&lt;b&gt;View Student dashboard&lt;br&gt;&lt;/b&gt;&lt;/span&gt;&lt;br&gt;The student and professor will be able to access the on-line system to access learning materials and all of the e learning provided for the particular course.&lt;div&gt;&lt;br&gt;&lt;/div&gt;&lt;div&gt;&lt;br&gt;&lt;/div&gt;&lt;div&gt;&lt;br&gt;&lt;/div&gt;&lt;div&gt;&lt;br&gt;&lt;/div&gt;&lt;br&gt;&amp;nbsp;" style="text;html=1;strokeColor=none;fillColor=none;spacing=5;spacingTop=-20;whiteSpace=wrap;overflow=hidden;rounded=0;" parent="1" vertex="1">
          <mxGeometry x="270" y="1720" width="190" height="200" as="geometry" />
        </mxCell>
        <mxCell id="r6Re-jrNYUQEbt7xdXI9-41" value="&lt;h1&gt;View Course to Teach&lt;/h1&gt;The professor will be able to access the on-line system to&lt;br&gt;indicate which courses they will be teaching. They will also need to see which&lt;br&gt;students signed up for their course offerings&lt;div&gt;&lt;br&gt;&lt;/div&gt;&lt;div&gt;&lt;br&gt;&lt;/div&gt;&lt;div&gt;&lt;br&gt;&lt;/div&gt;&lt;div&gt;&lt;br&gt;&lt;/div&gt;&lt;br&gt;&amp;nbsp;" style="text;html=1;strokeColor=none;fillColor=none;spacing=5;spacingTop=-20;whiteSpace=wrap;overflow=hidden;rounded=0;" parent="1" vertex="1">
          <mxGeometry x="520" y="1720" width="190" height="200" as="geometry" />
        </mxCell>
        <mxCell id="r6Re-jrNYUQEbt7xdXI9-42" value="&lt;h1&gt;&lt;/h1&gt;&lt;span style=&quot;font-size: 24px;&quot;&gt;&lt;b&gt;Billing System&lt;br&gt;&lt;/b&gt;&lt;/span&gt;&lt;br&gt;Upon successful registration, the student will be able to get the billing required for that particular course.&lt;div&gt;&lt;br&gt;&lt;/div&gt;&lt;div&gt;&lt;br&gt;&lt;/div&gt;&lt;div&gt;&lt;br&gt;&lt;/div&gt;&lt;div&gt;&lt;/div&gt;" style="text;html=1;strokeColor=none;fillColor=none;spacing=5;spacingTop=-20;whiteSpace=wrap;overflow=hidden;rounded=0;" parent="1" vertex="1">
          <mxGeometry x="35" y="2060" width="190" height="130" as="geometry" />
        </mxCell>
        <mxCell id="r6Re-jrNYUQEbt7xdXI9-43" value="&lt;h1&gt;&lt;/h1&gt;&lt;span style=&quot;font-size: 24px;&quot;&gt;&lt;b&gt;Basic Flow -Login Use Case&lt;br&gt;&lt;/b&gt;&lt;/span&gt;&lt;br&gt;&lt;div&gt;1.This use case begin when the &lt;u&gt;user&lt;/u&gt; enter his &lt;u&gt;id&lt;/u&gt; and &lt;u&gt;password&lt;/u&gt;.&lt;/div&gt;&lt;div&gt;2.The &lt;u&gt;CRS&lt;/u&gt; validates the id and password.&lt;/div&gt;&lt;div&gt;3.The CRS grants &lt;u&gt;authorization&lt;/u&gt; to the user.&lt;/div&gt;&lt;div&gt;4.The use case ends.&lt;/div&gt;&lt;div&gt;&lt;br&gt;&lt;/div&gt;&lt;div&gt;Exception&lt;br&gt;&lt;br&gt;&lt;/div&gt;&lt;div&gt;&lt;br&gt;&lt;/div&gt;&lt;div&gt;&lt;br&gt;&lt;/div&gt;&lt;div&gt;&lt;br&gt;&lt;/div&gt;&lt;br&gt;&amp;nbsp;" style="text;html=1;strokeColor=none;fillColor=none;spacing=5;spacingTop=-20;whiteSpace=wrap;overflow=hidden;rounded=0;" parent="1" vertex="1">
          <mxGeometry x="270" y="1910" width="190" height="350" as="geometry" />
        </mxCell>
        <mxCell id="r6Re-jrNYUQEbt7xdXI9-46" value="loginForm" style="shape=umlLifeline;perimeter=lifelinePerimeter;whiteSpace=wrap;html=1;container=1;dropTarget=0;collapsible=0;recursiveResize=0;outlineConnect=0;portConstraint=eastwest;newEdgeStyle={&quot;curved&quot;:0,&quot;rounded&quot;:0};" parent="1" vertex="1">
          <mxGeometry x="180" y="2215" width="100" height="495" as="geometry" />
        </mxCell>
        <mxCell id="r6Re-jrNYUQEbt7xdXI9-47" value="" style="shape=umlLifeline;perimeter=lifelinePerimeter;whiteSpace=wrap;html=1;container=1;dropTarget=0;collapsible=0;recursiveResize=0;outlineConnect=0;portConstraint=eastwest;newEdgeStyle={&quot;curved&quot;:0,&quot;rounded&quot;:0};participant=umlActor;" parent="1" vertex="1">
          <mxGeometry x="80" y="2250" width="20" height="470" as="geometry" />
        </mxCell>
        <mxCell id="r6Re-jrNYUQEbt7xdXI9-48" value="&lt;h1&gt;Possible Objects&lt;/h1&gt;&lt;p&gt;1.Login form - to accept id and password.&lt;/p&gt;&lt;p&gt;2.UserDB - to validate id an password.&lt;/p&gt;" style="text;html=1;strokeColor=none;fillColor=none;spacing=5;spacingTop=-20;whiteSpace=wrap;overflow=hidden;rounded=0;" parent="1" vertex="1">
          <mxGeometry x="510" y="2215" width="240" height="120" as="geometry" />
        </mxCell>
        <mxCell id="r6Re-jrNYUQEbt7xdXI9-50" value="" style="endArrow=open;endFill=1;endSize=12;html=1;rounded=0;" parent="1" edge="1">
          <mxGeometry width="160" relative="1" as="geometry">
            <mxPoint x="95" y="2350" as="sourcePoint" />
            <mxPoint x="225" y="2350" as="targetPoint" />
          </mxGeometry>
        </mxCell>
        <mxCell id="r6Re-jrNYUQEbt7xdXI9-51" value="1. enters id &lt;br&gt;and password" style="edgeLabel;html=1;align=center;verticalAlign=middle;resizable=0;points=[];" parent="r6Re-jrNYUQEbt7xdXI9-50" vertex="1" connectable="0">
          <mxGeometry x="-0.0375" y="-5" relative="1" as="geometry">
            <mxPoint x="-8" y="15" as="offset" />
          </mxGeometry>
        </mxCell>
        <mxCell id="r6Re-jrNYUQEbt7xdXI9-53" value="userDB" style="shape=umlLifeline;perimeter=lifelinePerimeter;whiteSpace=wrap;html=1;container=1;dropTarget=0;collapsible=0;recursiveResize=0;outlineConnect=0;portConstraint=eastwest;newEdgeStyle={&quot;curved&quot;:0,&quot;rounded&quot;:0};" parent="1" vertex="1">
          <mxGeometry x="310" y="2215" width="100" height="495" as="geometry" />
        </mxCell>
        <mxCell id="r6Re-jrNYUQEbt7xdXI9-55" value="" style="endArrow=open;endFill=1;endSize=12;html=1;rounded=0;" parent="1" edge="1">
          <mxGeometry width="160" relative="1" as="geometry">
            <mxPoint x="230" y="2400" as="sourcePoint" />
            <mxPoint x="360" y="2400" as="targetPoint" />
          </mxGeometry>
        </mxCell>
        <mxCell id="r6Re-jrNYUQEbt7xdXI9-56" value="2. validates id&lt;br style=&quot;border-color: var(--border-color);&quot;&gt;and password" style="edgeLabel;html=1;align=center;verticalAlign=middle;resizable=0;points=[];" parent="r6Re-jrNYUQEbt7xdXI9-55" vertex="1" connectable="0">
          <mxGeometry x="0.1" y="6" relative="1" as="geometry">
            <mxPoint x="-2" y="6" as="offset" />
          </mxGeometry>
        </mxCell>
        <mxCell id="r6Re-jrNYUQEbt7xdXI9-59" value="&lt;h1&gt;&lt;/h1&gt;&lt;span style=&quot;font-size: 24px;&quot;&gt;&lt;b&gt;Basic Flow -Login Use Case&lt;br&gt;SRS_REQ_100&lt;br&gt;&lt;/b&gt;&lt;/span&gt;&lt;br&gt;&lt;div&gt;1.This use case begin when the &lt;u&gt;user&lt;/u&gt; enter his &lt;u&gt;id&lt;/u&gt; and &lt;u&gt;password&lt;/u&gt;.&amp;nbsp;&lt;/div&gt;(SRS_REQ_101)&lt;div&gt;2.The &lt;u&gt;CRS&lt;/u&gt; validates the id and password. (SRS_REQ_102)&lt;/div&gt;&lt;div&gt;3.The CRS grants &lt;u&gt;authorization&lt;/u&gt; to the user.&lt;/div&gt;(SRS_REQ_103)&lt;div&gt;4.The use case ends.&lt;/div&gt;&lt;div&gt;&lt;br&gt;&lt;/div&gt;&lt;div&gt;&lt;b&gt;Exception Flow - Login Use Case&lt;/b&gt;&lt;/div&gt;&lt;div&gt;&lt;b&gt;E1&lt;/b&gt;: Invalid id and Password&lt;br&gt;1. The CRS gives another attempts [&lt;b&gt;R1: Max Attempt&lt;/b&gt;]&lt;/div&gt;&lt;div&gt;(SRS_REQ_104)&lt;br&gt;&lt;/div&gt;&lt;div&gt;2. If all attempts fail, this use case ends&amp;nbsp;&lt;br&gt;&lt;br&gt;&lt;/div&gt;&lt;div&gt;Rules and Constraints&lt;/div&gt;&lt;div&gt;&lt;b&gt;R1&lt;/b&gt;: Max Attempt is 3&lt;/div&gt;&lt;div&gt;(SRS_NF_REQ_101)&lt;br&gt;&lt;/div&gt;&lt;div&gt;&lt;br&gt;&lt;/div&gt;&lt;div&gt;&lt;br&gt;&lt;/div&gt;&lt;br&gt;&amp;nbsp;" style="text;html=1;strokeColor=none;fillColor=none;spacing=5;spacingTop=-20;whiteSpace=wrap;overflow=hidden;rounded=0;" parent="1" vertex="1">
          <mxGeometry x="550" y="2350" width="190" height="505" as="geometry" />
        </mxCell>
        <mxCell id="r6Re-jrNYUQEbt7xdXI9-60" value="loginForm" style="swimlane;fontStyle=1;align=center;verticalAlign=top;childLayout=stackLayout;horizontal=1;startSize=26;horizontalStack=0;resizeParent=1;resizeParentMax=0;resizeLast=0;collapsible=1;marginBottom=0;whiteSpace=wrap;html=1;" parent="1" vertex="1">
          <mxGeometry x="20" y="2770" width="160" height="110" as="geometry" />
        </mxCell>
        <mxCell id="r6Re-jrNYUQEbt7xdXI9-61" value="+ field: type" style="text;strokeColor=none;fillColor=none;align=left;verticalAlign=top;spacingLeft=4;spacingRight=4;overflow=hidden;rotatable=0;points=[[0,0.5],[1,0.5]];portConstraint=eastwest;whiteSpace=wrap;html=1;" parent="r6Re-jrNYUQEbt7xdXI9-60" vertex="1">
          <mxGeometry y="26" width="160" height="26" as="geometry" />
        </mxCell>
        <mxCell id="r6Re-jrNYUQEbt7xdXI9-62" value="" style="line;strokeWidth=1;fillColor=none;align=left;verticalAlign=middle;spacingTop=-1;spacingLeft=3;spacingRight=3;rotatable=0;labelPosition=right;points=[];portConstraint=eastwest;strokeColor=inherit;" parent="r6Re-jrNYUQEbt7xdXI9-60" vertex="1">
          <mxGeometry y="52" width="160" height="8" as="geometry" />
        </mxCell>
        <mxCell id="r6Re-jrNYUQEbt7xdXI9-63" value="+ enterId&amp;amp;Pass()&lt;br&gt;+ reattempt()" style="text;strokeColor=none;fillColor=none;align=left;verticalAlign=top;spacingLeft=4;spacingRight=4;overflow=hidden;rotatable=0;points=[[0,0.5],[1,0.5]];portConstraint=eastwest;whiteSpace=wrap;html=1;" parent="r6Re-jrNYUQEbt7xdXI9-60" vertex="1">
          <mxGeometry y="60" width="160" height="50" as="geometry" />
        </mxCell>
        <mxCell id="r6Re-jrNYUQEbt7xdXI9-64" value="UserDB" style="swimlane;fontStyle=1;align=center;verticalAlign=top;childLayout=stackLayout;horizontal=1;startSize=26;horizontalStack=0;resizeParent=1;resizeParentMax=0;resizeLast=0;collapsible=1;marginBottom=0;whiteSpace=wrap;html=1;" parent="1" vertex="1">
          <mxGeometry x="260" y="2782" width="160" height="86" as="geometry" />
        </mxCell>
        <mxCell id="r6Re-jrNYUQEbt7xdXI9-65" value="+ field: type" style="text;strokeColor=none;fillColor=none;align=left;verticalAlign=top;spacingLeft=4;spacingRight=4;overflow=hidden;rotatable=0;points=[[0,0.5],[1,0.5]];portConstraint=eastwest;whiteSpace=wrap;html=1;" parent="r6Re-jrNYUQEbt7xdXI9-64" vertex="1">
          <mxGeometry y="26" width="160" height="26" as="geometry" />
        </mxCell>
        <mxCell id="r6Re-jrNYUQEbt7xdXI9-66" value="" style="line;strokeWidth=1;fillColor=none;align=left;verticalAlign=middle;spacingTop=-1;spacingLeft=3;spacingRight=3;rotatable=0;labelPosition=right;points=[];portConstraint=eastwest;strokeColor=inherit;" parent="r6Re-jrNYUQEbt7xdXI9-64" vertex="1">
          <mxGeometry y="52" width="160" height="8" as="geometry" />
        </mxCell>
        <mxCell id="r6Re-jrNYUQEbt7xdXI9-67" value="+ validateId&amp;amp;Pass()" style="text;strokeColor=none;fillColor=none;align=left;verticalAlign=top;spacingLeft=4;spacingRight=4;overflow=hidden;rotatable=0;points=[[0,0.5],[1,0.5]];portConstraint=eastwest;whiteSpace=wrap;html=1;" parent="r6Re-jrNYUQEbt7xdXI9-64" vertex="1">
          <mxGeometry y="60" width="160" height="26" as="geometry" />
        </mxCell>
        <mxCell id="r6Re-jrNYUQEbt7xdXI9-68" value="" style="line;strokeWidth=1;fillColor=none;align=left;verticalAlign=middle;spacingTop=-1;spacingLeft=3;spacingRight=3;rotatable=0;labelPosition=right;points=[];portConstraint=eastwest;strokeColor=inherit;" parent="1" vertex="1">
          <mxGeometry x="180" y="2821" width="80" height="8" as="geometry" />
        </mxCell>
        <mxCell id="r6Re-jrNYUQEbt7xdXI9-69" value="" style="endArrow=block;dashed=1;endFill=0;endSize=12;html=1;rounded=0;" parent="1" edge="1">
          <mxGeometry width="160" relative="1" as="geometry">
            <mxPoint x="360" y="2444.5" as="sourcePoint" />
            <mxPoint x="90" y="2444.5" as="targetPoint" />
          </mxGeometry>
        </mxCell>
        <mxCell id="r6Re-jrNYUQEbt7xdXI9-70" value="Authorization = Grant" style="edgeLabel;html=1;align=center;verticalAlign=middle;resizable=0;points=[];" parent="r6Re-jrNYUQEbt7xdXI9-69" vertex="1" connectable="0">
          <mxGeometry x="0.163" y="-1" relative="1" as="geometry">
            <mxPoint x="27" y="2" as="offset" />
          </mxGeometry>
        </mxCell>
        <mxCell id="r6Re-jrNYUQEbt7xdXI9-71" value="E1" style="shape=umlFrame;whiteSpace=wrap;html=1;pointerEvents=0;" parent="1" vertex="1">
          <mxGeometry x="70" y="2480" width="310" height="200" as="geometry" />
        </mxCell>
        <mxCell id="r6Re-jrNYUQEbt7xdXI9-73" value="" style="endArrow=open;endFill=1;endSize=12;html=1;rounded=0;" parent="1" edge="1">
          <mxGeometry width="160" relative="1" as="geometry">
            <mxPoint x="230" y="2520" as="sourcePoint" />
            <mxPoint x="360" y="2520" as="targetPoint" />
          </mxGeometry>
        </mxCell>
        <mxCell id="r6Re-jrNYUQEbt7xdXI9-74" value="2. validates id&lt;br style=&quot;border-color: var(--border-color);&quot;&gt;and password" style="edgeLabel;html=1;align=center;verticalAlign=middle;resizable=0;points=[];" parent="r6Re-jrNYUQEbt7xdXI9-73" vertex="1" connectable="0">
          <mxGeometry x="0.1" y="6" relative="1" as="geometry">
            <mxPoint x="-2" y="6" as="offset" />
          </mxGeometry>
        </mxCell>
        <mxCell id="r6Re-jrNYUQEbt7xdXI9-77" value="" style="endArrow=open;endFill=1;endSize=12;html=1;rounded=0;" parent="1" target="r6Re-jrNYUQEbt7xdXI9-46" edge="1">
          <mxGeometry width="160" relative="1" as="geometry">
            <mxPoint x="360" y="2580" as="sourcePoint" />
            <mxPoint x="370" y="2530" as="targetPoint" />
          </mxGeometry>
        </mxCell>
        <mxCell id="r6Re-jrNYUQEbt7xdXI9-78" value="3. Login failed - &lt;br&gt;Reattempt" style="edgeLabel;html=1;align=center;verticalAlign=middle;resizable=0;points=[];" parent="r6Re-jrNYUQEbt7xdXI9-77" vertex="1" connectable="0">
          <mxGeometry x="0.1" y="6" relative="1" as="geometry">
            <mxPoint x="12" y="-6" as="offset" />
          </mxGeometry>
        </mxCell>
        <mxCell id="joImyw4oRHYoINWDJsZ0-2" value="Display" style="rounded=0;whiteSpace=wrap;html=1;" vertex="1" parent="1">
          <mxGeometry x="190" y="360" width="120" height="60" as="geometry" />
        </mxCell>
        <mxCell id="joImyw4oRHYoINWDJsZ0-3" value="IoT Websocket simulator" style="rounded=0;whiteSpace=wrap;html=1;" vertex="1" parent="1">
          <mxGeometry x="505" y="360" width="120" height="60" as="geometry" />
        </mxCell>
        <mxCell id="joImyw4oRHYoINWDJsZ0-4" value="Save Db" style="shape=cylinder3;whiteSpace=wrap;html=1;boundedLbl=1;backgroundOutline=1;size=15;" vertex="1" parent="1">
          <mxGeometry x="380" y="260" width="60" height="80" as="geometry" />
        </mxCell>
        <mxCell id="joImyw4oRHYoINWDJsZ0-5" value="" style="endArrow=classic;html=1;rounded=0;exitX=0;exitY=0.5;exitDx=0;exitDy=0;entryX=1;entryY=0.5;entryDx=0;entryDy=0;" edge="1" parent="1" source="joImyw4oRHYoINWDJsZ0-3" target="joImyw4oRHYoINWDJsZ0-2">
          <mxGeometry width="50" height="50" relative="1" as="geometry">
            <mxPoint x="430" y="390" as="sourcePoint" />
            <mxPoint x="480" y="340" as="targetPoint" />
          </mxGeometry>
        </mxCell>
        <mxCell id="joImyw4oRHYoINWDJsZ0-6" value="read&amp;nbsp;" style="text;html=1;align=center;verticalAlign=middle;resizable=0;points=[];autosize=1;strokeColor=none;fillColor=none;" vertex="1" parent="1">
          <mxGeometry x="355" y="388" width="50" height="30" as="geometry" />
        </mxCell>
        <mxCell id="joImyw4oRHYoINWDJsZ0-7" value="" style="endArrow=classic;html=1;rounded=0;" edge="1" parent="1">
          <mxGeometry width="50" height="50" relative="1" as="geometry">
            <mxPoint x="320" y="350" as="sourcePoint" />
            <mxPoint x="370" y="300" as="targetPoint" />
          </mxGeometry>
        </mxCell>
        <mxCell id="joImyw4oRHYoINWDJsZ0-8" value="save" style="edgeLabel;html=1;align=center;verticalAlign=middle;resizable=0;points=[];" vertex="1" connectable="0" parent="joImyw4oRHYoINWDJsZ0-7">
          <mxGeometry x="-0.1" y="4" relative="1" as="geometry">
            <mxPoint x="-10" y="-5" as="offset" />
          </mxGeometry>
        </mxCell>
        <mxCell id="joImyw4oRHYoINWDJsZ0-9" value="" style="endArrow=classic;startArrow=classic;html=1;rounded=0;" edge="1" parent="1">
          <mxGeometry width="50" height="50" relative="1" as="geometry">
            <mxPoint x="130" y="390" as="sourcePoint" />
            <mxPoint x="190" y="390" as="targetPoint" />
          </mxGeometry>
        </mxCell>
        <mxCell id="joImyw4oRHYoINWDJsZ0-10" value="user &lt;br&gt;interaction" style="text;html=1;align=center;verticalAlign=middle;resizable=0;points=[];autosize=1;strokeColor=none;fillColor=none;" vertex="1" parent="1">
          <mxGeometry x="70" y="370" width="80" height="40" as="geometry" />
        </mxCell>
        <mxCell id="joImyw4oRHYoINWDJsZ0-11" value="&lt;h1&gt;&lt;span style=&quot;background-color: initial;&quot;&gt;Non Functional Requirement&amp;nbsp;&lt;/span&gt;&lt;/h1&gt;&lt;h1 style=&quot;font-size: 11px;&quot;&gt;&lt;font style=&quot;font-size: 11px;&quot;&gt;&lt;span style=&quot;background-color: initial; font-weight: normal;&quot;&gt;Security&lt;/span&gt;&lt;/font&gt;&lt;/h1&gt;&lt;div&gt;&lt;font style=&quot;font-size: 11px;&quot;&gt;&lt;span style=&quot;background-color: initial; font-weight: normal;&quot;&gt;The client dealing with database must be at the user display side to reduce risk of external tampering.&amp;nbsp;&lt;/span&gt;&lt;/font&gt;&lt;/div&gt;&lt;h1 style=&quot;font-size: 11px;&quot;&gt;&lt;span style=&quot;font-weight: 400;&quot;&gt;Only numerical data are only allowed to be saved in the database. Strings and Null values are not allowed&lt;/span&gt;&lt;/h1&gt;&lt;div style=&quot;font-size: 11px;&quot;&gt;&lt;span style=&quot;background-color: initial;&quot;&gt;&lt;font style=&quot;font-size: 11px;&quot;&gt;The database saving operation requires user authentication.&lt;/font&gt;&lt;/span&gt;&lt;/div&gt;&lt;div style=&quot;font-size: 11px;&quot;&gt;&lt;span style=&quot;background-color: initial;&quot;&gt;&lt;font style=&quot;font-size: 11px;&quot;&gt;The system will indicate that the data entered is non numeric&lt;/font&gt;&lt;/span&gt;&lt;/div&gt;&lt;div&gt;&lt;span style=&quot;background-color: initial; font-size: 12px; font-weight: normal;&quot;&gt;&lt;br&gt;&lt;/span&gt;&lt;/div&gt;&lt;div&gt;&lt;span style=&quot;background-color: initial; font-size: 12px; font-weight: normal;&quot;&gt;&lt;br&gt;&lt;/span&gt;&lt;/div&gt;&lt;br&gt;&amp;nbsp;" style="text;html=1;strokeColor=none;fillColor=none;spacing=5;spacingTop=-20;whiteSpace=wrap;overflow=hidden;rounded=0;" vertex="1" parent="1">
          <mxGeometry x="70" y="600" width="630" height="160" as="geometry" />
        </mxCell>
        <mxCell id="joImyw4oRHYoINWDJsZ0-12" value="&lt;h1&gt;&lt;/h1&gt;&lt;span style=&quot;font-size: 24px;&quot;&gt;&lt;b&gt;Hardware&lt;br&gt;&lt;/b&gt;&lt;/span&gt;&lt;br&gt;&lt;div&gt;For the initial stage of the project, the system will use websocket through local network instead of IoT.&lt;br&gt;&lt;/div&gt;&lt;div&gt;&lt;br&gt;&lt;/div&gt;&lt;div&gt;&lt;br&gt;&lt;/div&gt;&lt;div&gt;&lt;br&gt;&lt;/div&gt;&lt;br&gt;&amp;nbsp;" style="text;html=1;strokeColor=none;fillColor=none;spacing=5;spacingTop=-20;whiteSpace=wrap;overflow=hidden;rounded=0;" vertex="1" parent="1">
          <mxGeometry x="70" y="960" width="650" height="120" as="geometry" />
        </mxCell>
        <mxCell id="joImyw4oRHYoINWDJsZ0-13" value="&lt;h1&gt;&lt;/h1&gt;&lt;span style=&quot;font-size: 24px;&quot;&gt;&lt;b&gt;User Characteristics&lt;br&gt;&lt;/b&gt;&lt;/span&gt;&lt;br&gt;&lt;div&gt;The user will be a system monitor that will use this RTMS system to monitor and save record into the database&lt;/div&gt;&lt;div&gt;&lt;br&gt;&lt;/div&gt;&lt;div&gt;&lt;br&gt;&lt;/div&gt;&lt;div&gt;&lt;br&gt;&lt;/div&gt;&lt;br&gt;&amp;nbsp;" style="text;html=1;strokeColor=none;fillColor=none;spacing=5;spacingTop=-20;whiteSpace=wrap;overflow=hidden;rounded=0;" vertex="1" parent="1">
          <mxGeometry x="70" y="880" width="710" height="90" as="geometry" />
        </mxCell>
      </root>
    </mxGraphModel>
  </diagram>
</mxfile>
